<svg version="1.1" xmlns="http://www.w3.org/2000/svg" style="display: block;" viewBox="0 0 2048 2048" width="600" height="600" preserveAspectRatio="none">
<path transform="translate(0,0)" fill="rgb(206,205,205)" d="M 1003.68 1010.24 C 1030.37 1009.18 1057.11 1006.28 1084.03 1004.59 C 1105.85 1003.22 1149.57 993.94 1155.11 967.972 C 1167.83 908.36 1081.22 893.191 1039.34 888.228 C 952.452 873.742 825.725 880.729 763.14 810.443 C 744.814 789.979 733.671 764.091 731.405 736.715 C 728.012 698.057 744.977 660.701 777.545 639.208 C 824.323 608.338 883.589 611.129 934.108 630.504 C 947.792 635.765 961.126 641.891 974.031 648.847 C 1003.83 664.728 1068 708.549 1100.21 678.758 C 1110.97 668.812 1102.67 629.371 1104.41 615.458 C 1109.84 506.22 1233.72 512.289 1299.15 565.936 C 1324.68 586.866 1337.56 614.487 1346.83 645.646 C 1356.52 678.201 1365.15 697.853 1400.35 707.231 C 1414.97 711.123 1430.17 712.357 1445.22 710.876 C 1517.17 703.465 1548.29 658.704 1542.25 594.707 C 1540.02 571.109 1548.3 539.765 1543.84 514.471 C 1543.59 444.26 1569.88 413.96 1634.63 389.189 C 1640.14 398.691 1652.9 426.751 1656.22 437.529 C 1646.19 444.518 1635.77 450.488 1625.76 457.456 C 1600.3 475.18 1593.39 504.13 1587.75 533.054 C 1585.21 546.056 1582.74 574.114 1584 587.222 C 1585.21 599.672 1588.37 611.705 1588.64 625.283 C 1589.25 666.976 1568.89 706.193 1534.44 729.678 C 1495.03 756.89 1445.52 765.953 1398.59 757.288 C 1366.77 751.413 1339.1 736.818 1320.67 709.671 C 1295.43 672.487 1301.68 629.926 1262.34 600.147 C 1248.98 590.031 1231.88 583.043 1215.47 579.866 C 1200.74 577.014 1180.74 575.649 1168.01 584.837 C 1159.59 590.916 1155.83 600.595 1154.5 610.584 C 1152.94 622.264 1154.47 634.158 1154.99 645.873 C 1156.25 674.592 1151.07 702.288 1127.17 720.881 C 1108.22 735.627 1083.9 740.814 1060.26 737.812 C 983.119 728.016 927.176 657.539 845.598 666.398 C 830.521 668.035 814.819 672.779 802.685 682.145 C 789.942 691.983 782.762 706.377 780.956 722.2 C 778.804 741.051 785.269 759.513 797.068 774.174 C 868.97 863.521 1124.36 796.951 1191.31 906.589 C 1202.26 924.522 1207.28 947.109 1205.09 967.999 C 1202.55 990.676 1190.96 1011.37 1172.96 1025.38 C 1136.85 1053.82 1067.63 1058.04 1021.88 1059.02 C 1017.08 1045.56 1004.35 1025.48 1002.51 1011.55 L 1003.68 1010.24 z"/>
<path transform="translate(0,0)" fill="rgb(43,91,65)" d="M 521.759 1595.04 C 537.948 1592.77 554.711 1590.45 569.87 1584.35 C 610.378 1568.04 620.145 1527.42 637.816 1492.01 C 645.768 1476.07 656.136 1460.42 668.664 1447.61 C 683.998 1431.62 703.873 1420.71 725.603 1416.38 C 815.201 1398.5 855.331 1492.29 911.577 1490.33 C 918.538 1490.08 925.689 1488.3 930.514 1482.97 C 942.31 1469.94 933.804 1443.18 932.915 1427.45 C 931.732 1406.52 936.95 1386.27 951.375 1370.53 C 961.401 1359.59 975.073 1352.91 989.481 1349.9 C 1065.58 1333.99 1114.29 1408.14 1184.76 1404.93 C 1206.62 1403.93 1228.19 1394.53 1242.83 1378.11 C 1254.28 1365.45 1260.09 1348.69 1258.95 1331.66 C 1255.8 1286.41 1211.03 1263.45 1171.51 1255.91 C 1072.47 1237 905.122 1268.37 826.413 1200.13 C 806.246 1182.65 793.126 1158.82 791.35 1132.02 C 789.725 1107.49 797.521 1085.29 813.902 1067.08 C 854.933 1021.47 945.518 1013.08 1003.68 1010.24 L 1002.51 1011.55 C 1004.35 1025.48 1017.08 1045.56 1021.88 1059.02 C 976.459 1062.17 882.522 1065.66 849.989 1100.94 C 843.255 1108.24 838.896 1120.14 840.249 1130.19 C 849.062 1195.6 974.029 1195.52 1022.66 1197 L 1102.75 1199.17 C 1129.03 1199.95 1153.98 1202.2 1179.99 1206.7 C 1240.59 1217.2 1299.38 1255.77 1306.86 1321.26 C 1310.4 1352.25 1303.15 1382.47 1283.12 1406.99 C 1266.63 1427.11 1244.45 1441.78 1219.49 1449.1 C 1118.84 1478.8 1061.46 1390.2 1003.39 1397.37 C 969.973 1401.49 985.075 1443.24 985.079 1465.59 C 985.082 1483.09 981.548 1498.32 970.681 1512.36 C 959.505 1526.79 943.412 1535.86 925.45 1538.66 C 840.667 1551.91 801.291 1455.89 739.037 1464.65 C 683.668 1472.45 672.773 1549.89 643.441 1588.3 C 613.93 1626.95 573.484 1637.83 527.41 1644.11 C 524.009 1628.59 523.009 1610.96 521.759 1595.04 z"/>
</svg>